<?xml version="1.0" encoding="utf-8"?>
<!-- Generator: Adobe Illustrator 16.0.3, SVG Export Plug-In . SVG Version: 6.00 Build 0)  -->
<!DOCTYPE svg PUBLIC "-//W3C//DTD SVG 1.1//EN" "http://www.w3.org/Graphics/SVG/1.1/DTD/svg11.dtd">
<svg version="1.1" id="Ebene_1" xmlns="http://www.w3.org/2000/svg" xmlns:xlink="http://www.w3.org/1999/xlink" x="0px" y="0px"
	 width="738px" height="262px" viewBox="223.775 102.445 738 262" enable-background="new 223.775 102.445 738 262"
	 xml:space="preserve">
<g id="Layer_1">
	<g id="New_Symbol">
	</g>
	<g id="New_Symbol_1_">
		<g id="New_Symbol_1">
			<g id="New_Symbol_2">
				<g id="New_Symbol_4">
				</g>
			</g>
		</g>
		<g id="New_Symbol_1_1_">
			<g id="New_Symbol_28">
			</g>
			<g id="New_Symbol_5">
				<g id="New_Symbol_6">
					<g id="New_Symbol_7">
						<g id="New_Symbol_8">
							<g id="New_Symbol_9">
								<g id="New_Symbol_10">
									<g id="New_Symbol_11">
									</g>
								</g>
							</g>
						</g>
					</g>
				</g>
			</g>
		</g>
		<g id="New_Symbol_8_1_">
			<g id="New_Symbol_5_1_">
				<g id="New_Symbol_7_1_">
					<g id="New_Symbol_4_1_">
					</g>
				</g>
			</g>
		</g>
		<g id="New_Symbol_2_">
			<g id="New_Symbol_1_2_">
				<g id="New_Symbol_2_1_">
					<g id="New_Symbol_4_2_">
						<g id="New_Symbol_4_3_">
							<g id="New_Symbol_5_2_">
							</g>
						</g>
					</g>
				</g>
			</g>
		</g>
	</g>
	<g id="New_Symbol_3_">
		<g id="New_Symbol_4_">
			<g id="New_Symbol_1_3_">
				<g id="New_Symbol_2_2_">
					<g id="New_Symbol_2_3_">
					</g>
				</g>
				<g id="New_Symbol_4_4_">
					<g id="New_Symbol_5_3_">
						<g id="New_Symbol_6_1_">
							<g id="New_Symbol_7_2_">
								<g id="New_Symbol_8_2_">
									<g id="New_Symbol_10_1_">
									</g>
								</g>
							</g>
						</g>
					</g>
				</g>
			</g>
			<g id="New_Symbol_9_2_">
			</g>
			<g id="New_Symbol_6_">
			</g>
		</g>
		<g id="New_Symbol_11_1_">
		</g>
		<g id="New_Symbol_1_4_">
			<g id="New_Symbol_2_4_">
				<g id="New_Symbol_5_">
					<g id="New_Symbol_9_1_">
					</g>
				</g>
			</g>
		</g>
		<g id="New_Symbol_4_5_">
		</g>
		<g id="New_Symbol_4_6_">
		</g>
		<g id="New_Symbol_7_">
		</g>
		<g id="New_Symbol_2_5_">
			<g id="New_Symbol_4_7_">
				<g id="New_Symbol_5_4_">
				</g>
			</g>
		</g>
		<g id="New_Symbol_8_">
		</g>
		<g id="New_Symbol_1_5_">
			<g id="New_Symbol_2_6_">
			</g>
			<g id="New_Symbol_4_8_">
				<g id="New_Symbol_4_9_">
					<g id="New_Symbol_5_5_">
					</g>
				</g>
			</g>
		</g>
		<g id="New_Symbol_2_7_">
		</g>
	</g>
	<g id="New_Symbol_28_4_">
		<g id="New_Symbol_24_8_">
		</g>
	</g>
</g>
<g id="Layer_4">
	<g id="New_Symbol_15">
		<g id="New_Symbol_17">
		</g>
	</g>
	<g id="New_Symbol_9_3_">
		<g id="New_Symbol_9_4_">
		</g>
		<g id="New_Symbol_9_">
		</g>
		<g id="New_Symbol_10_">
			<g id="New_Symbol_1_6_">
			</g>
		</g>
		<g id="New_Symbol_1_7_">
			<g id="New_Symbol_1_8_">
				<g id="New_Symbol_1_9_">
				</g>
				<g id="New_Symbol_2_8_">
					<g id="New_Symbol_1_10_">
					</g>
				</g>
			</g>
		</g>
		<g id="New_Symbol_2_9_">
			<g id="New_Symbol_2_10_">
				<g id="New_Symbol_4_10_">
					<g id="New_Symbol_2_11_">
						<g id="New_Symbol_4_11_">
							<g id="New_Symbol_5_6_">
								<g id="New_Symbol_6_2_">
									<g id="New_Symbol_6_3_">
										<g id="New_Symbol_7_3_">
											<g id="New_Symbol_8_3_">
												<g id="New_Symbol_9_5_">
												</g>
											</g>
										</g>
									</g>
								</g>
							</g>
						</g>
					</g>
				</g>
			</g>
		</g>
		<g id="New_Symbol_11_">
			<g id="New_Symbol_7_4_">
				<g id="New_Symbol_8_4_">
					<g id="New_Symbol_8_5_">
						<g id="New_Symbol_9_6_">
							<g id="New_Symbol_10_2_">
								<g id="New_Symbol_11_2_">
									<g id="New_Symbol_12">
										<g id="New_Symbol_13">
											<g id="New_Symbol_13_1_">
												<g id="New_Symbol_14">
													<g id="New_Symbol_15_1_">
														<g id="New_Symbol_16">
															<g id="New_Symbol_17_1_">
																<g id="New_Symbol_12_">
																	<g id="New_Symbol_1_11_">
																		<g id="New_Symbol_2_12_">
																			<g id="New_Symbol_4_12_">
																				<g id="New_Symbol_5_7_">
																					<g id="New_Symbol_5_8_">
																						<g id="New_Symbol_6_4_">
																							<g id="New_Symbol_7_5_">
																							</g>
																						</g>
																					</g>
																				</g>
																			</g>
																		</g>
																	</g>
																</g>
															</g>
														</g>
													</g>
												</g>
											</g>
										</g>
									</g>
								</g>
							</g>
						</g>
					</g>
				</g>
			</g>
		</g>
		<g id="New_Symbol_13_">
			<g id="New_Symbol_1_12_">
			</g>
		</g>
		<g id="New_Symbol_14_">
			<g id="New_Symbol_1_13_">
				<g id="New_Symbol_2_13_">
					<g id="New_Symbol_2_14_">
						<g id="New_Symbol_8_12_">
						</g>
						<g id="New_Symbol_8_11_">
						</g>
						<g id="New_Symbol_8_10_">
						</g>
						<g id="New_Symbol_8_9_">
						</g>
						<g id="New_Symbol_8_8_">
						</g>
						<g id="New_Symbol_8_7_">
						</g>
						<g id="New_Symbol_8_6_">
						</g>
						<g id="New_Symbol_4_13_">
							<g id="New_Symbol_5_9_">
								<g id="New_Symbol_6_5_">
									<g id="New_Symbol_7_6_">
										<g id="New_Symbol_9_7_">
										</g>
									</g>
								</g>
							</g>
						</g>
					</g>
				</g>
			</g>
		</g>
		<g id="New_Symbol_2_19_">
		</g>
		<g id="New_Symbol_2_18_">
		</g>
		<g id="New_Symbol_2_17_">
		</g>
		<g id="New_Symbol_2_16_">
		</g>
		<g id="New_Symbol_2_15_">
		</g>
		<g id="New_Symbol_4_14_">
			<g id="New_Symbol_2_25_">
			</g>
			<g id="New_Symbol_2_24_">
			</g>
			<g id="New_Symbol_2_23_">
			</g>
			<g id="New_Symbol_2_22_">
			</g>
			<g id="New_Symbol_2_21_">
			</g>
			<g id="New_Symbol_2_20_">
			</g>
			<g id="New_Symbol_14_1_">
				<g id="New_Symbol_22">
				</g>
				<g id="New_Symbol_10_3_">
					<g id="New_Symbol_2_32_">
					</g>
					<g id="New_Symbol_2_31_">
					</g>
					<g id="New_Symbol_2_30_">
					</g>
					<g id="New_Symbol_2_29_">
					</g>
					<g id="New_Symbol_2_28_">
					</g>
					<g id="New_Symbol_2_27_">
					</g>
					<g id="New_Symbol_2_26_">
					</g>
					<g id="New_Symbol_2_33_">
					</g>
					<g id="New_Symbol_11_3_">
						<g id="New_Symbol_2_41_">
						</g>
						<g id="New_Symbol_2_40_">
						</g>
						<g id="New_Symbol_2_39_">
						</g>
						<g id="New_Symbol_2_38_">
						</g>
						<g id="New_Symbol_2_37_">
						</g>
						<g id="New_Symbol_2_36_">
						</g>
						<g id="New_Symbol_2_35_">
						</g>
						<g id="New_Symbol_2_34_">
						</g>
						<g id="New_Symbol_12_1_">
							<g id="New_Symbol_8_20_">
							</g>
							<g id="New_Symbol_8_19_">
							</g>
							<g id="New_Symbol_8_18_">
							</g>
							<g id="New_Symbol_8_17_">
							</g>
							<g id="New_Symbol_8_16_">
							</g>
							<g id="New_Symbol_8_15_">
							</g>
							<g id="New_Symbol_8_14_">
							</g>
							<g id="New_Symbol_8_13_">
							</g>
							<g id="New_Symbol_13_2_">
								<g id="New_Symbol_8_22_">
								</g>
								<g id="New_Symbol_8_21_">
								</g>
								<g id="New_Symbol_14_2_">
									<g id="New_Symbol_8_30_">
									</g>
									<g id="New_Symbol_8_29_">
									</g>
									<g id="New_Symbol_8_27_">
									</g>
									<g id="New_Symbol_8_25_">
									</g>
									<g id="New_Symbol_8_23_">
									</g>
									<g id="New_Symbol_8_28_">
									</g>
									<g id="New_Symbol_8_24_">
									</g>
									<g id="New_Symbol_8_26_">
									</g>
									<g id="New_Symbol_15_2_">
										<g id="New_Symbol_16_1_">
											<g id="New_Symbol_8_37_">
											</g>
											<g id="New_Symbol_8_36_">
											</g>
											<g id="New_Symbol_8_35_">
											</g>
											<g id="New_Symbol_8_34_">
											</g>
											<g id="New_Symbol_8_33_">
											</g>
											<g id="New_Symbol_8_32_">
											</g>
											<g id="New_Symbol_8_31_">
											</g>
										</g>
									</g>
								</g>
							</g>
						</g>
					</g>
				</g>
			</g>
		</g>
		<g id="New_Symbol_5_10_">
			<g id="New_Symbol_1_14_">
				<g id="New_Symbol_1_15_">
					<g id="New_Symbol_1_16_">
						<g id="New_Symbol_6_6_">
							<g id="New_Symbol_7_7_">
							</g>
						</g>
					</g>
				</g>
			</g>
		</g>
		<g id="New_Symbol_31">
			<g id="New_Symbol_24" opacity="0.81">
			</g>
			<g id="New_Symbol_4_15_">
			</g>
			<g id="New_Symbol_25_1_">
			</g>
			<g id="New_Symbol_25">
			</g>
			<g id="New_Symbol_20">
			</g>
			<g id="New_Symbol_28_2_">
				<g id="New_Symbol_24_6_">
				</g>
			</g>
			<g id="New_Symbol_28_1_">
				<g id="New_Symbol_24_4_">
				</g>
			</g>
			<g id="New_Symbol_2_42_">
			</g>
			<g id="New_Symbol_7_11_">
			</g>
			<g id="New_Symbol_7_9_">
			</g>
			<g id="New_Symbol_7_10_">
			</g>
			<g id="New_Symbol_7_8_">
			</g>
			<g id="New_Symbol_19">
			</g>
			<g id="New_Symbol_15_3_">
			</g>
			<g id="New_Symbol_5_11_">
			</g>
			<g id="New_Symbol_4_16_">
			</g>
			<g id="New_Symbol_26">
				<g id="New_Symbol_18">
				</g>
			</g>
			<g id="New_Symbol_17_2_">
			</g>
			<g id="New_Symbol_20_3_">
			</g>
			<g id="New_Symbol_22_1_">
			</g>
			<g id="New_Symbol_25_2_">
			</g>
			<g id="New_Symbol_13_3_">
			</g>
			<g id="New_Symbol_27">
				<g id="New_Symbol_20_2_">
				</g>
			</g>
			<g id="New_Symbol_24_3_">
			</g>
			<g id="New_Symbol_24_1_">
			</g>
			<g id="New_Symbol_32">
				<g id="New_Symbol_20_4_">
				</g>
			</g>
			<g id="New_Symbol_7_12_">
			</g>
		</g>
		<g id="New_Symbol_19_1_">
			<g id="New_Symbol_20_1_">
				<g id="New_Symbol_21">
					<g id="New_Symbol_22_2_">
						<g id="New_Symbol_24_2_">
							<g id="New_Symbol_25_3_">
								<g id="New_Symbol_26_1_">
									<g id="New_Symbol_27_1_">
										<g id="New_Symbol_28_3_">
											<g id="New_Symbol_29">
											</g>
										</g>
									</g>
								</g>
							</g>
						</g>
					</g>
				</g>
			</g>
		</g>
		<g id="New_Symbol_20_6_">
			<g id="New_Symbol_8_38_">
			</g>
			<g id="New_Symbol_8_39_">
			</g>
			<g id="New_Symbol_13_5_">
			</g>
			<g id="New_Symbol_6_7_">
			</g>
			<g id="New_Symbol_35" opacity="0.93">
			</g>
			<g id="New_Symbol_27_3_">
				<g id="New_Symbol_20_8_">
				</g>
			</g>
			<g id="New_Symbol_13_4_">
			</g>
			<g id="New_Symbol_2_44_">
			</g>
			<g id="New_Symbol_10_4_">
			</g>
			<g id="New_Symbol_2_43_">
			</g>
			<g id="New_Symbol_27_2_">
				<g id="New_Symbol_20_7_">
				</g>
			</g>
			<g id="New_Symbol_12_2_">
			</g>
		</g>
	</g>
	<g id="New_Symbol_30">
		<g id="New_Symbol_12_3_">
		</g>
		<g id="New_Symbol_13_9_">
		</g>
		<g id="New_Symbol_13_8_" opacity="0.65">
		</g>
		<g id="New_Symbol_24_22_">
		</g>
		<g id="New_Symbol_24_7_">
		</g>
		<g id="New_Symbol_24_21_">
		</g>
		<g id="New_Symbol_24_9_" opacity="0.53">
		</g>
		<g id="New_Symbol_13_6_">
		</g>
		<g id="New_Symbol_13_7_">
		</g>
		<g id="New_Symbol_2_47_">
		</g>
		<g id="New_Symbol_2_46_">
		</g>
		<g id="New_Symbol_2_45_">
		</g>
		<g id="New_Symbol_11_14_">
			<g id="New_Symbol_24_20_">
			</g>
		</g>
		<g id="New_Symbol_11_11_" opacity="0.42">
			<g id="New_Symbol_24_17_">
			</g>
		</g>
		<g id="New_Symbol_11_10_" opacity="0.66">
			<g id="New_Symbol_24_16_">
			</g>
		</g>
		<g id="New_Symbol_11_9_" opacity="0.69">
			<g id="New_Symbol_24_15_">
			</g>
		</g>
		<g id="New_Symbol_11_8_" opacity="0.69">
			<g id="New_Symbol_24_14_">
			</g>
		</g>
		<g id="New_Symbol_11_7_" opacity="0.69">
			<g id="New_Symbol_24_13_">
			</g>
		</g>
		<g id="New_Symbol_11_6_" opacity="0.34">
			<g id="New_Symbol_24_12_">
			</g>
		</g>
		<g id="New_Symbol_11_5_">
			<g id="New_Symbol_24_10_">
			</g>
		</g>
		<g id="New_Symbol_11_4_" opacity="0.63">
			<g id="New_Symbol_24_5_">
			</g>
		</g>
		<g id="New_Symbol_18_1_">
		</g>
		<g id="New_Symbol_6_9_">
		</g>
		<g id="New_Symbol_6_8_">
			<g id="New_Symbol_31_1_">
				<g id="New_Symbol_13_15_">
				</g>
				<g id="New_Symbol_13_14_" opacity="0.65">
				</g>
				<g id="New_Symbol_13_13_" opacity="0.65">
				</g>
				<g id="New_Symbol_24_37_">
				</g>
				<g id="New_Symbol_24_36_">
				</g>
				<g id="New_Symbol_24_35_">
				</g>
				<g id="New_Symbol_24_34_" opacity="0.53">
				</g>
				<g id="New_Symbol_13_12_" opacity="0.88">
				</g>
				<g id="New_Symbol_13_11_">
				</g>
				<g id="New_Symbol_13_10_">
				</g>
				<g id="New_Symbol_2_50_">
				</g>
				<g id="New_Symbol_2_49_">
				</g>
				<g id="New_Symbol_2_48_">
				</g>
				<g id="New_Symbol_11_24_">
					<g id="New_Symbol_24_33_">
					</g>
				</g>
				<g id="New_Symbol_11_23_" opacity="0.37">
					<g id="New_Symbol_24_32_">
					</g>
				</g>
				<g id="New_Symbol_11_22_" opacity="0.42">
					<g id="New_Symbol_24_31_">
					</g>
				</g>
				<g id="New_Symbol_11_21_" opacity="0.42">
					<g id="New_Symbol_24_30_">
					</g>
				</g>
				<g id="New_Symbol_11_20_" opacity="0.66">
					<g id="New_Symbol_24_29_">
					</g>
				</g>
				<g id="New_Symbol_11_19_" opacity="0.69">
					<g id="New_Symbol_24_28_">
					</g>
				</g>
				<g id="New_Symbol_11_18_" opacity="0.69">
					<g id="New_Symbol_24_27_">
					</g>
				</g>
				<g id="New_Symbol_11_17_" opacity="0.69">
					<g id="New_Symbol_24_26_">
					</g>
				</g>
				<g id="New_Symbol_11_16_" opacity="0.34">
					<g id="New_Symbol_24_25_">
					</g>
				</g>
				<g id="New_Symbol_11_15_" opacity="0.63">
					<g id="New_Symbol_24_24_">
					</g>
				</g>
				<g id="New_Symbol_18_2_">
				</g>
				<g id="New_Symbol_6_11_">
				</g>
				<g id="New_Symbol_6_10_">
				</g>
				<g id="New_Symbol_8_48_">
				</g>
				<g id="New_Symbol_8_47_">
				</g>
				<g id="New_Symbol_8_46_">
				</g>
				<g id="New_Symbol_8_45_">
				</g>
				<g id="New_Symbol_8_44_">
				</g>
				<g id="New_Symbol_35_3_">
				</g>
				<g id="New_Symbol_10_6_">
				</g>
				<g id="New_Symbol_34">
					<g id="New_Symbol_13_17_">
						<g id="New_Symbol_13_23_">
						</g>
						<g id="New_Symbol_13_22_" opacity="0.65">
						</g>
						<g id="New_Symbol_13_21_" opacity="0.65">
						</g>
						<g id="New_Symbol_24_51_">
						</g>
						<g id="New_Symbol_24_50_">
						</g>
						<g id="New_Symbol_24_49_">
						</g>
						<g id="New_Symbol_24_48_" opacity="0.53">
						</g>
						<g id="New_Symbol_13_20_" opacity="0.88">
						</g>
					</g>
					<g id="New_Symbol_13_19_">
					</g>
					<g id="New_Symbol_13_18_">
					</g>
					<g id="New_Symbol_2_53_">
					</g>
					<g id="New_Symbol_2_52_">
					</g>
					<g id="New_Symbol_2_51_">
					</g>
					<g id="New_Symbol_11_34_">
						<g id="New_Symbol_24_47_">
						</g>
					</g>
					<g id="New_Symbol_11_33_" opacity="0.37">
						<g id="New_Symbol_24_46_">
						</g>
					</g>
					<g id="New_Symbol_11_32_" opacity="0.42">
						<g id="New_Symbol_24_45_">
						</g>
					</g>
					<g id="New_Symbol_11_31_" opacity="0.42">
						<g id="New_Symbol_24_44_">
						</g>
					</g>
					<g id="New_Symbol_11_30_" opacity="0.66">
						<g id="New_Symbol_24_43_">
						</g>
					</g>
					<g id="New_Symbol_11_29_" opacity="0.69">
						<g id="New_Symbol_24_42_">
						</g>
					</g>
					<g id="New_Symbol_11_28_" opacity="0.69">
						<g id="New_Symbol_24_41_">
						</g>
					</g>
					<g id="New_Symbol_11_27_" opacity="0.69">
						<g id="New_Symbol_24_40_">
						</g>
					</g>
					<g id="New_Symbol_11_26_" opacity="0.34">
						<g id="New_Symbol_24_39_">
						</g>
					</g>
					<g id="New_Symbol_11_25_" opacity="0.63">
						<g id="New_Symbol_24_38_">
						</g>
					</g>
					<g id="New_Symbol_18_3_">
					</g>
					<g id="New_Symbol_6_13_">
					</g>
					<g id="New_Symbol_6_12_">
					</g>
					<g id="New_Symbol_8_52_">
					</g>
					<g id="New_Symbol_8_51_">
					</g>
					<g id="New_Symbol_8_50_">
					</g>
					<g id="New_Symbol_8_49_">
					</g>
					<g id="New_Symbol_35_4_">
					</g>
					<g id="New_Symbol_10_7_">
					</g>
				</g>
			</g>
		</g>
		<g id="New_Symbol_8_43_">
		</g>
		<g id="New_Symbol_8_42_">
		</g>
		<g id="New_Symbol_8_41_">
		</g>
		<g id="New_Symbol_8_40_">
		</g>
		<g id="New_Symbol_35_1_">
		</g>
		<g id="New_Symbol_35_2_">
		</g>
		<g id="New_Symbol_10_5_">
		</g>
		<g id="New_Symbol_11_12_" opacity="0.42">
			<g id="New_Symbol_24_18_">
			</g>
		</g>
		<g id="New_Symbol_11_13_" opacity="0.37">
			<g id="New_Symbol_24_19_">
			</g>
		</g>
	</g>
</g>
<g id="Layer_294">
	<g id="New_Symbol_19_2_">
	</g>
	<g id="New_Symbol_20_5_">
		<g id="New_Symbol_19_3_">
		</g>
		<g id="New_Symbol_20_9_">
		</g>
		<g id="New_Symbol_21_2_">
		</g>
		<g id="New_Symbol_17_4_">
		</g>
	</g>
	<g id="New_Symbol_21_1_">
	</g>
	<g id="New_Symbol_17_3_">
	</g>
	<g>
		<path fill="#27357D" d="M594.569,157.074h18.604v86.897h-18.604V157.074z"/>
		<path fill="#27357D" d="M643.081,173.323h-22.137v-16.249h63.112v16.249H661.92v70.648h-18.604v-70.648H643.081z"/>
		<path fill="#27357D" d="M682.879,200.64c0-26.61,20.253-44.979,45.686-44.979c19.782,0,30.85,10.361,36.973,21.194l-15.777,7.771
			c-3.533-7.064-11.54-12.716-21.195-12.716c-15.071,0-26.61,12.01-26.61,28.494s11.539,28.495,26.61,28.495
			c9.655,0,17.427-5.417,21.195-12.717l15.777,7.771c-6.358,10.832-17.19,21.43-36.973,21.43
			C703.132,245.62,682.879,227.252,682.879,200.64z"/>
		<path fill="#27357D" d="M776.605,157.074h61.464v15.778h-43.095v18.84h42.153v15.778h-42.153v20.252h43.095v16.014h-61.464
			V157.074z"/>
		<path fill="#27357D" d="M886.816,212.886h-13.658v31.085h-18.604v-86.897h40.977c18.133,0,29.201,11.775,29.201,28.024
			c0,15.307-9.655,23.549-19.075,25.904l19.546,32.969h-21.194L886.816,212.886z M892.704,173.088h-19.311v24.021h19.311
			c7.536,0,12.952-4.71,12.952-12.01C905.656,177.798,900.24,173.088,892.704,173.088z"/>
	</g>
	<polygon fill="#E4E705" points="420.774,200.64 370.614,200.64 395.811,157.074 	"/>
	<polygon fill="#B66D32" points="395.811,157.074 445.972,157.074 420.774,200.64 	"/>
	<polygon fill="#B66D32" points="470.934,200.64 420.774,200.64 445.972,157.074 	"/>
	<polygon fill="#B66D32" points="496.133,243.971 445.972,243.971 470.934,200.64 	"/>
	<polygon fill="#0AD5EA" points="395.811,243.971 420.774,200.64 370.614,200.64 	"/>
	<polygon fill="#B66D32" points="445.972,243.971 470.934,200.64 420.774,200.64 	"/>
	<polygon fill="#27357D" points="521.094,200.64 470.934,200.64 496.133,157.074 	"/>
	<polygon fill="#27357D" points="496.133,243.971 521.094,200.64 470.934,200.64 	"/>
	<polygon fill="#27357D" points="521.094,200.64 546.293,157.074 496.133,157.074 	"/>
	<polygon fill="#4BA541" points="370.614,200.64 320.454,200.64 345.651,157.074 	"/>
	<polygon fill="#27357D" points="420.774,200.64 370.614,200.64 395.811,157.074 	"/>
	<polygon fill="#4BA541" points="345.651,243.971 370.614,200.64 320.454,200.64 	"/>
	<polygon fill="#4BA541" points="320.454,200.64 345.651,157.074 295.491,157.074 	"/>
	<polygon fill="#27357D" points="320.454,200.64 270.294,200.64 295.491,157.074 	"/>
	<polygon fill="#27357D" points="245.331,243.971 295.491,243.971 270.294,200.64 	"/>
	<polygon fill="#27357D" points="295.491,243.971 320.454,200.64 270.294,200.64 	"/>
	<polygon fill="#4BA541" points="370.614,200.64 345.651,243.971 395.811,243.971 	"/>
	<polygon fill="#27357D" points="395.811,243.971 420.774,200.64 370.614,200.64 	"/>
	<g>
		<path fill="#283582" d="M594.804,275.763h0.941v18.604h-0.941V275.763z"/>
		<path fill="#283582" d="M609.876,284.947c0-2.825-1.413-3.532-3.532-3.532c-1.884,0-3.768,1.178-4.71,2.591v10.597h-0.942v-13.423
			h0.942v2.119c0.942-1.177,3.062-2.354,4.945-2.354c2.591,0,4.239,1.178,4.239,4.475v9.42h-0.942V284.947L609.876,284.947z"/>
		<path fill="#283582" d="M615.763,291.777v-10.362h-2.12v-0.706h2.12v-3.769h0.941v3.769h2.826v0.706h-2.826v10.362
			c0,1.177,0.471,1.884,1.413,1.884c0.707,0,1.178-0.235,1.648-0.707l0.471,0.707c-0.471,0.471-1.177,0.941-2.119,0.941
			C616.469,294.602,615.763,293.426,615.763,291.777z"/>
		<path fill="#283582" d="M628.244,280.473c4.239,0,6.123,3.297,6.123,7.064v0.235h-11.539c0,3.297,2.119,6.123,5.652,6.123
			c1.884,0,3.532-0.706,4.709-2.119l0.472,0.471c-1.413,1.413-2.826,2.354-5.181,2.354c-4.004,0-6.595-3.062-6.595-7.064
			C622.122,283.535,624.712,280.473,628.244,280.473z M623.063,287.067h10.833c0-2.591-1.648-5.888-5.416-5.888
			C624.947,281.179,623.063,284.476,623.063,287.067z"/>
		<path fill="#283582" d="M638.842,280.709h0.941v2.354c1.178-1.648,2.591-2.59,4.71-2.59v0.941c-0.235,0-0.471,0-0.706,0
			c-1.413,0-3.297,1.413-4.004,2.591v10.126h-0.941V280.709z"/>
		<path fill="#283582" d="M656.504,284.947c0-2.825-1.413-3.532-3.532-3.532c-1.884,0-3.769,1.178-4.71,2.591v10.597h-0.942v-13.423
			h0.942v2.119c0.941-1.177,3.062-2.354,4.945-2.354c2.59,0,4.238,1.178,4.238,4.475v9.42h-0.941V284.947z"/>
		<path fill="#283582" d="M670.869,292.483c-1.178,1.413-2.826,1.884-4.71,1.884c-2.355,0-4.71-1.648-4.71-4.474
			c0-2.826,2.354-4.475,4.71-4.475c1.884,0,3.297,0.706,4.71,1.884v-3.062c0-2.119-1.648-3.297-3.769-3.297
			c-1.648,0-3.062,0.706-4.238,2.119l-0.707-0.471c1.413-1.648,2.591-2.354,4.945-2.354c2.591,0,4.71,1.412,4.71,4.003v9.655h-0.941
			V292.483z M670.869,288.48c-0.942-1.413-2.591-2.12-4.475-2.12c-2.354,0-4.004,1.648-4.004,3.769c0,2.119,1.649,3.768,4.004,3.768
			c1.648,0,3.297-0.706,4.475-2.119V288.48z"/>
		<path fill="#283582" d="M676.992,291.777v-10.362h-2.12v-0.706h2.12v-3.769h0.941v3.769h2.826v0.706h-2.826v10.362
			c0,1.177,0.471,1.884,1.413,1.884c0.706,0,1.178-0.235,1.648-0.707l0.471,0.707c-0.471,0.471-1.177,0.941-2.119,0.941
			C677.698,294.602,676.992,293.426,676.992,291.777z"/>
		<path fill="#283582" d="M683.586,277.647c0-0.471,0.471-0.707,0.706-0.707c0.471,0,0.706,0.472,0.706,0.707
			s-0.471,0.706-0.706,0.706S683.586,278.118,683.586,277.647z M684.056,280.709h0.941v13.423h-0.941V280.709z"/>
		<path fill="#283582" d="M689.002,287.538c0-4.003,2.59-7.064,6.358-7.064c3.768,0,6.358,3.062,6.358,7.064
			c0,4.004-2.355,7.064-6.358,7.064C691.592,294.602,689.002,291.542,689.002,287.538z M700.541,287.538
			c0-3.297-1.884-6.358-5.416-6.358s-5.417,3.062-5.417,6.358s1.885,6.358,5.417,6.358S700.541,290.835,700.541,287.538z"/>
		<path fill="#283582" d="M714.906,284.947c0-2.825-1.413-3.532-3.532-3.532c-1.884,0-3.769,1.178-4.71,2.591v10.597h-0.942v-13.423
			h0.942v2.119c0.941-1.177,3.062-2.354,4.945-2.354c2.59,0,4.238,1.178,4.238,4.475v9.42h-0.941V284.947z"/>
		<path fill="#283582" d="M729.271,292.483c-1.178,1.413-2.826,1.884-4.71,1.884c-2.355,0-4.71-1.648-4.71-4.474
			c0-2.826,2.354-4.475,4.71-4.475c1.884,0,3.297,0.706,4.71,1.884v-3.062c0-2.119-1.648-3.297-3.768-3.297
			c-1.649,0-3.062,0.706-4.239,2.119l-0.706-0.471c1.412-1.648,2.59-2.354,4.945-2.354c2.59,0,4.709,1.412,4.709,4.003v9.655h-0.941
			V292.483L729.271,292.483z M729.271,288.48c-0.942-1.413-2.591-2.12-4.475-2.12c-2.354,0-4.003,1.648-4.003,3.769
			c0,2.119,1.648,3.768,4.003,3.768c1.648,0,3.297-0.706,4.475-2.119V288.48z"/>
		<path fill="#283582" d="M735.158,275.763h0.942v18.604h-0.942V275.763z"/>
		<path fill="#283582" d="M751.879,276.469h-6.358v-0.941h13.423v0.941h-6.358v17.662h-0.706V276.469z"/>
		<path fill="#283582" d="M759.885,280.709h0.941v2.354c1.178-1.648,2.591-2.59,4.71-2.59v0.941c-0.235,0-0.471,0-0.706,0
			c-1.413,0-3.297,1.413-4.004,2.591v10.126h-0.941V280.709z"/>
		<path fill="#283582" d="M777.076,292.483c-1.177,1.413-2.825,1.884-4.709,1.884c-2.355,0-4.71-1.648-4.71-4.474
			c0-2.826,2.354-4.475,4.71-4.475c1.884,0,3.297,0.706,4.709,1.884v-3.062c0-2.119-1.648-3.297-3.768-3.297
			c-1.648,0-3.062,0.706-4.238,2.119l-0.707-0.471c1.413-1.648,2.591-2.354,4.945-2.354c2.591,0,4.71,1.412,4.71,4.003v9.655h-0.942
			V292.483L777.076,292.483z M777.076,288.48c-0.941-1.413-2.59-2.12-4.474-2.12c-2.355,0-4.004,1.648-4.004,3.769
			c0,2.119,1.648,3.768,4.004,3.768c1.648,0,3.297-0.706,4.474-2.119V288.48z"/>
		<path fill="#283582" d="M782.493,277.647c0-0.471,0.471-0.707,0.706-0.707c0.471,0,0.707,0.472,0.707,0.707
			s-0.472,0.706-0.707,0.706S782.493,278.118,782.493,277.647z M782.964,280.709h0.942v13.423h-0.942V280.709z"/>
		<path fill="#283582" d="M797.564,284.947c0-2.825-1.413-3.532-3.532-3.532c-1.884,0-3.769,1.178-4.71,2.591v10.597h-0.942v-13.423
			h0.942v2.119c0.941-1.177,3.062-2.354,4.945-2.354c2.591,0,4.239,1.178,4.239,4.475v9.42h-0.942V284.947z"/>
		<path fill="#283582" d="M802.98,277.647c0-0.471,0.472-0.707,0.707-0.707c0.471,0,0.706,0.472,0.706,0.707
			s-0.471,0.706-0.706,0.706S802.98,278.118,802.98,277.647z M803.452,280.709h0.941v13.423h-0.941V280.709z"/>
		<path fill="#283582" d="M818.288,284.947c0-2.825-1.413-3.532-3.532-3.532c-1.884,0-3.769,1.178-4.71,2.591v10.597h-0.942v-13.423
			h0.942v2.119c0.941-1.177,3.062-2.354,4.945-2.354c2.591,0,4.239,1.178,4.239,4.475v9.42h-0.942V284.947z"/>
		<path fill="#283582" d="M824.882,296.958c1.178,1.413,2.354,1.884,4.475,1.884c2.59,0,4.945-1.413,4.945-4.71v-2.354
			c-0.942,1.413-2.826,2.59-4.945,2.59c-3.532,0-6.123-2.825-6.123-7.064s2.354-7.064,6.123-7.064c2.119,0,3.768,0.941,4.945,2.59
			v-2.354h0.941v13.423c0,3.768-2.354,5.417-5.651,5.417c-2.355,0-3.532-0.472-5.181-2.12L824.882,296.958z M834.066,284.006
			c-0.942-1.413-2.826-2.826-4.945-2.826c-3.297,0-5.182,2.826-5.182,6.358s1.884,6.358,5.182,6.358
			c2.119,0,4.003-1.413,4.945-2.826V284.006z"/>
		<path fill="#283582" d="M846.782,284.947c0-5.651,4.239-9.655,9.185-9.655c2.591,0,4.71,0.942,6.358,2.826l-0.706,0.707
			c-1.413-1.648-3.533-2.591-5.652-2.591c-4.71,0-8.242,3.532-8.242,8.713c0,5.182,3.532,8.714,8.242,8.714
			c2.355,0,4.475-0.942,5.652-2.591l0.706,0.472c-1.648,1.884-3.768,3.061-6.594,3.061
			C850.786,294.602,846.782,290.599,846.782,284.947z"/>
		<path fill="#283582" d="M869.861,280.473c4.238,0,6.123,3.297,6.123,7.064v0.235h-11.539c0,3.297,2.119,6.123,5.651,6.123
			c1.884,0,3.532-0.706,4.71-2.119l0.471,0.471c-1.413,1.413-2.826,2.354-5.181,2.354c-4.003,0-6.594-3.062-6.594-7.064
			S866.094,280.473,869.861,280.473z M864.444,287.067h10.833c0-2.591-1.648-5.888-5.416-5.888
			C866.329,281.179,864.444,284.476,864.444,287.067z"/>
		<path fill="#283582" d="M889.407,284.947c0-2.825-1.413-3.532-3.532-3.532c-1.885,0-3.769,1.178-4.71,2.591v10.597h-0.942v-13.423
			h0.942v2.119c0.941-1.177,3.062-2.354,4.945-2.354c2.591,0,4.238,1.178,4.238,4.475v9.42h-0.941V284.947z"/>
		<path fill="#283582" d="M895.295,291.777v-10.362h-2.12v-0.706h2.12v-3.769h0.941v3.769h2.826v0.706h-2.826v10.362
			c0,1.177,0.471,1.884,1.413,1.884c0.706,0,1.178-0.235,1.648-0.707l0.471,0.707c-0.471,0.471-1.177,0.941-2.119,0.941
			C896.001,294.602,895.295,293.426,895.295,291.777z"/>
		<path fill="#283582" d="M903.065,280.709h0.942v2.354c1.178-1.648,2.59-2.59,4.71-2.59v0.941c-0.235,0-0.472,0-0.707,0
			c-1.413,0-3.297,1.413-4.003,2.591v10.126h-0.942V280.709z"/>
		<path fill="#283582" d="M916.488,280.473c4.239,0,6.123,3.297,6.123,7.064v0.235h-11.539c0,3.297,2.119,6.123,5.652,6.123
			c1.884,0,3.532-0.706,4.71-2.119l0.471,0.471c-1.413,1.413-2.826,2.354-5.181,2.354c-4.004,0-6.594-3.062-6.594-7.064
			S912.956,280.473,916.488,280.473z M911.072,287.067h10.833c0-2.591-1.648-5.888-5.416-5.888
			C912.956,281.179,911.308,284.476,911.072,287.067z"/>
	</g>
	<text transform="matrix(1 0 0 1 939.699 294.6521)" fill="#283582" font-family="'ArialMT'" font-size="28.3615"> </text>
	<g>
		<path fill="#283582" d="M594.569,315.091h-2.12v-0.706h2.12v-1.413c0-2.591,1.177-4.003,3.297-4.003c0.471,0,1.177,0,1.648,0.471
			l-0.472,0.706c-0.235-0.235-0.706-0.235-1.177-0.235c-1.648,0-2.591,1.178-2.591,3.297v1.413h2.826v0.706h-2.826v12.717h-0.942
			v-12.952H594.569z"/>
		<path fill="#283582" d="M600.691,321.214c0-4.003,2.591-7.064,6.358-7.064c3.769,0,6.358,3.062,6.358,7.064
			c0,4.004-2.354,7.064-6.358,7.064C603.047,328.278,600.691,324.981,600.691,321.214z M612.23,321.214
			c0-3.297-1.884-6.358-5.416-6.358s-5.416,3.062-5.416,6.358s1.884,6.358,5.416,6.358
			C610.346,327.337,612.23,324.51,612.23,321.214z"/>
		<path fill="#283582" d="M617.647,314.385h0.941v2.354c1.178-1.648,2.591-2.59,4.71-2.59v0.941c-0.235,0-0.471,0-0.706,0
			c-1.413,0-3.297,1.413-4.004,2.591v10.126h-0.941V314.385z"/>
		<path fill="#283582" d="M634.367,309.204h11.304v0.941h-10.361v7.771h10.361v0.942h-10.361v8.242h10.361v0.941h-11.304V309.204z"
			/>
		<path fill="#283582" d="M659.33,318.387c0-2.825-1.413-3.532-3.533-3.532c-1.884,0-3.768,1.178-4.709,2.591v10.597h-0.942V314.62
			h0.942v2.119c0.941-1.177,3.061-2.354,4.945-2.354c2.59,0,4.238,1.178,4.238,4.475v9.419h-0.941V318.387L659.33,318.387z"/>
		<path fill="#283582" d="M663.097,314.385h0.941l5.182,12.481l5.181-12.481h0.942l-5.652,13.423h-0.942L663.097,314.385z"/>
		<path fill="#283582" d="M678.404,311.323c0-0.471,0.472-0.706,0.707-0.706c0.471,0,0.706,0.471,0.706,0.706
			s-0.471,0.706-0.706,0.706S678.404,311.794,678.404,311.323z M678.876,314.385h0.941v13.423h-0.941V314.385z"/>
		<path fill="#283582" d="M684.762,314.385h0.942v2.354c1.178-1.648,2.59-2.59,4.71-2.59v0.941c-0.235,0-0.472,0-0.707,0
			c-1.413,0-3.297,1.413-4.003,2.591v10.126h-0.942V314.385z"/>
		<path fill="#283582" d="M693.005,321.214c0-4.003,2.591-7.064,6.358-7.064c3.769,0,6.358,3.062,6.358,7.064
			c0,4.004-2.354,7.064-6.358,7.064C695.36,328.278,693.005,324.981,693.005,321.214z M704.545,321.214
			c0-3.297-1.885-6.358-5.417-6.358s-5.416,3.062-5.416,6.358s1.884,6.358,5.416,6.358
			C702.66,327.337,704.545,324.51,704.545,321.214z"/>
		<path fill="#283582" d="M719.145,318.387c0-2.825-1.413-3.532-3.533-3.532c-1.884,0-3.768,1.178-4.71,2.591v10.597h-0.941V314.62
			h0.941v2.119c0.942-1.177,3.062-2.354,4.946-2.354c2.59,0,4.238,1.178,4.238,4.475v9.419h-0.941V318.387z"/>
		<path fill="#283582" d="M740.81,318.152c0-2.119-0.942-3.297-2.826-3.297c-1.413,0-3.297,1.178-4.238,2.591v10.597h-0.707v-9.655
			c0-2.119-0.941-3.297-2.826-3.297c-1.412,0-3.297,1.178-4.238,2.591v10.598h-0.942v-13.424h0.942v2.12
			c0.471-0.942,2.354-2.355,4.238-2.355c2.12,0,3.297,1.413,3.533,2.591c0.706-1.178,2.59-2.591,4.474-2.591
			c2.355,0,3.532,1.413,3.532,4.004v9.655h-0.941V318.152z"/>
		<path fill="#283582" d="M752.585,314.149c4.239,0,6.123,3.297,6.123,7.064v0.235h-11.539c0,3.297,2.119,6.123,5.651,6.123
			c1.885,0,3.533-0.706,4.71-2.119l0.472,0.471c-1.413,1.413-2.826,2.355-5.182,2.355c-4.003,0-6.594-3.062-6.594-7.065
			C746.226,317.211,748.817,314.149,752.585,314.149z M747.169,320.743h10.833c0-2.591-1.648-5.888-5.417-5.888
			C749.052,314.855,747.169,317.917,747.169,320.743z"/>
		<path fill="#283582" d="M772.367,318.387c0-2.825-1.413-3.532-3.533-3.532c-1.884,0-3.768,1.178-4.71,2.591v10.597h-0.941V314.62
			h0.941v2.119c0.942-1.177,3.062-2.354,4.946-2.354c2.59,0,4.238,1.178,4.238,4.475v9.419h-0.941V318.387z"/>
		<path fill="#283582" d="M778.489,325.453v-10.362h-2.119v-0.706h2.119v-3.768h0.942v3.768h2.826v0.706h-2.826v10.362
			c0,1.177,0.471,1.884,1.413,1.884c0.706,0,1.177-0.235,1.648-0.707l0.471,0.707c-0.471,0.471-1.178,0.941-2.119,0.941
			C779.196,328.278,778.489,327.101,778.489,325.453z"/>
		<path fill="#283582" d="M794.503,326.159c-1.178,1.413-2.826,1.884-4.71,1.884c-2.354,0-4.71-1.648-4.71-4.474
			c0-2.826,2.355-4.475,4.71-4.475c1.884,0,3.297,0.706,4.71,1.884v-3.062c0-2.119-1.648-3.297-3.768-3.297
			c-1.648,0-3.062,0.707-4.239,2.119l-0.706-0.471c1.413-1.648,2.59-2.354,4.945-2.354c2.591,0,4.71,1.413,4.71,4.003v9.655h-0.942
			V326.159L794.503,326.159z M794.503,321.921c-0.941-1.413-2.59-2.12-4.475-2.12c-2.354,0-4.003,1.648-4.003,3.769
			c0,2.119,1.648,3.768,4.003,3.768c1.649,0,3.297-0.707,4.475-2.119V321.921z"/>
		<path fill="#283582" d="M800.626,309.204h0.942v18.604h-0.942V309.204z"/>
		<path fill="#283582" d="M819.701,319.801h-4.475v8.007h-0.942v-18.604h6.358c3.062,0,5.417,1.884,5.417,5.181
			s-2.591,5.181-5.417,5.181l5.652,8.007h-1.178L819.701,319.801z M820.878,310.145h-5.416v8.949h5.416
			c2.826,0,4.475-1.884,4.475-4.475S823.469,310.145,820.878,310.145z"/>
		<path fill="#283582" d="M835.715,314.149c4.238,0,6.123,3.297,6.123,7.064v0.235h-11.54c0,3.297,2.12,6.123,5.652,6.123
			c1.884,0,3.532-0.706,4.71-2.119l0.471,0.471c-1.413,1.413-2.826,2.355-5.181,2.355c-4.004,0-6.594-3.062-6.594-7.065
			C829.356,317.211,831.946,314.149,835.715,314.149z M830.298,320.743h10.833c0-2.591-1.648-5.888-5.416-5.888
			C832.181,314.855,830.298,317.917,830.298,320.743z"/>
		<path fill="#283582" d="M845.841,325.453c0.941,1.177,2.354,2.119,4.239,2.119c2.59,0,4.003-1.413,4.003-3.062
			c0-1.884-2.119-2.591-4.003-3.062c-2.12-0.471-4.475-1.178-4.475-3.532c0-1.884,1.648-3.532,4.475-3.532
			c2.354,0,3.768,0.941,4.709,2.119l-0.706,0.471c-0.706-1.177-2.119-1.884-4.003-1.884c-2.355,0-3.769,1.178-3.769,2.826
			s1.884,2.119,3.769,2.826c2.354,0.471,4.709,1.177,4.709,4.003c0,2.119-1.648,3.769-4.709,3.769c-2.12,0-3.533-0.707-4.946-2.12
			L845.841,325.453z"/>
		<path fill="#283582" d="M864.916,314.149c4.238,0,6.123,3.297,6.123,7.064v0.235h-11.54c0,3.297,2.12,6.123,5.652,6.123
			c1.884,0,3.532-0.706,4.71-2.119l0.471,0.471c-1.413,1.413-2.826,2.355-5.181,2.355c-4.004,0-6.594-3.062-6.594-7.065
			C858.793,317.211,861.383,314.149,864.916,314.149z M859.734,320.743h10.833c0-2.591-1.648-5.888-5.416-5.888
			C861.619,314.855,859.734,317.917,859.734,320.743z"/>
		<path fill="#283582" d="M884.462,326.159c-1.178,1.413-2.826,1.884-4.71,1.884c-2.355,0-4.71-1.648-4.71-4.474
			c0-2.826,2.354-4.475,4.71-4.475c1.884,0,3.297,0.706,4.71,1.884v-3.062c0-2.119-1.648-3.297-3.769-3.297
			c-1.648,0-3.061,0.707-4.238,2.119l-0.707-0.471c1.413-1.648,2.591-2.354,4.945-2.354c2.591,0,4.71,1.413,4.71,4.003v9.655h-0.941
			V326.159z M884.462,321.921c-0.942-1.413-2.591-2.12-4.475-2.12c-2.354,0-4.003,1.648-4.003,3.769
			c0,2.119,1.648,3.768,4.003,3.768c1.648,0,3.297-0.707,4.475-2.119V321.921z"/>
		<path fill="#283582" d="M890.584,314.385h0.942v2.354c1.178-1.648,2.591-2.59,4.71-2.59v0.941c-0.235,0-0.471,0-0.706,0
			c-1.413,0-3.297,1.413-4.004,2.591v10.126h-0.942V314.385z"/>
		<path fill="#283582" d="M904.949,314.149c2.12,0,3.533,0.941,4.71,2.354l-0.706,0.471c-1.178-1.412-2.355-2.119-4.004-2.119
			c-3.532,0-5.416,2.826-5.416,6.358s2.119,6.358,5.416,6.358c1.648,0,2.826-0.471,4.004-2.119l0.706,0.471
			c-1.177,1.413-2.354,2.354-4.71,2.354c-4.003,0-6.357-3.297-6.357-7.064C898.592,317.211,901.181,314.149,904.949,314.149z"/>
		<path fill="#283582" d="M922.611,318.387c0-2.825-1.412-3.532-3.532-3.532c-1.884,0-3.768,1.178-4.71,2.591v10.597h-0.941v-18.604
			h0.941v7.3c0.942-1.177,3.062-2.354,4.945-2.354c2.591,0,4.239,1.178,4.239,4.239v9.419h-0.942V318.387z"/>
	</g>
</g>
</svg>
